<?xml version="1.0" encoding="utf-8"?>
<!-- Generator: Adobe Illustrator 24.3.0, SVG Export Plug-In . SVG Version: 6.00 Build 0)  -->
<svg version="1.1" xmlns="http://www.w3.org/2000/svg" xmlns:xlink="http://www.w3.org/1999/xlink" x="0px" y="0px"
	 viewBox="0 0 400 400" style="enable-background:new 0 0 400 400;" xml:space="preserve">
<style type="text/css">
	.st0{fill:url(#SVGID_1_);}
	.st1{fill:url(#SVGID_2_);}
</style>
<g id="Layer_4">
</g>
<g id="Layer_3">
	<g>
		<g>
			<linearGradient id="SVGID_1_" gradientUnits="userSpaceOnUse" x1="24.0424" y1="200" x2="375.9576" y2="200">
				<stop  offset="0.1945" style="stop-color:#E134EA"/>
				<stop  offset="1" style="stop-color:#A416D5"/>
			</linearGradient>
			<path class="st0" d="M200,393.7c-10.7,0-21.5-2.7-31-8.1L56,321.7c-19.7-11.2-32-32.2-32-54.9V133.1c0-22.7,12.3-43.7,32-54.9
				L169,14.4c19.1-10.8,42.9-10.8,62,0L344,78.3c19.7,11.2,32,32.2,32,54.9v133.7c0,22.7-12.3,43.7-32,54.9L231,385.6
				C221.5,391,210.7,393.7,200,393.7z M200,26.1c-7.4,0-14.7,1.9-21.3,5.6L65.8,95.5c-13.5,7.7-22,22.1-22,37.7v133.7
				c0,15.6,8.4,30,22,37.6l112.9,63.9c13.1,7.4,29.4,7.4,42.6,0l112.9-63.9c13.5-7.7,22-22.1,22-37.7V133.1c0-15.6-8.4-30-22-37.7
				L221.3,31.6C214.7,27.9,207.4,26.1,200,26.1z"/>
		</g>
		<linearGradient id="SVGID_2_" gradientUnits="userSpaceOnUse" x1="111.2906" y1="200" x2="288.7094" y2="200">
			<stop  offset="0" style="stop-color:#E134EA"/>
			<stop  offset="1" style="stop-color:#A416D5"/>
		</linearGradient>
		<path class="st1" d="M205.2,222c0,0-24.4,0-37.8-2.4c-13.4-2.4-23-11.3-27.9-26.1c-4.2-12.9,0.5-27.1,1.8-30.5
			c0.1-0.3-0.2-0.5-0.4-0.4c-1.7,0.8-5.9,3-10,5.8c-4,2.8-7.6,6.6-9.6,8.3c-3.4,2.7-6.5,1-4.1-3.4c2.4-4.5,16.2-32.7,30.3-43
			c14.1-10.3,28.2-13.4,39.9-15.1c11.7-1.7,101.4-0.3,101.4-0.3l-8.3,40.9l-76.3,0.3c0,0-20.1,1.9-21.3,15.3
			c-1.2,13.4,15.5,12.2,15.5,12.2l34.3,1.4c7.6,0.3,15,2.6,21.2,6.8c3.9,2.7,7.4,6.2,8.8,10.7c2.8,8.7,0.4,24.2-1.1,31.3
			c-0.5,2.4-2.5,9.2-3.6,11.4c-0.1,0.2-0.2,0.3-0.2,0.5c-0.7,2-5,12-11.2,18.9c-2.6,2.8-13.1,17-31.6,19.4
			c-18.6,2.4-103.5,1.7-103.5,1.7l8.9-40.6l76.3,0.7c0,0,14.8,0.3,20.3-9.8c3.7-6.8,0.5-10.7-1.9-12.6c-1.2-0.9-2.7-1.4-4.2-1.4
			H205.2z"/>
	</g>
</g>
<g id="Layer_2">
</g>
</svg>
